<svg width="200" height="200" viewBox="0 0 200 200" fill="none" xmlns="http://www.w3.org/2000/svg">
<circle cx="100" cy="100" r="99" fill="white" stroke="black" stroke-width="2"/>
<path d="M64.7949 95.3887L47.8467 124.397C46.8734 126.09 45.3711 126.937 43.3398 126.937C41.8164 126.937 40.5046 126.386 39.4043 125.286C38.3464 124.186 37.8174 122.98 37.8174 121.668C37.8174 120.652 38.1348 119.616 38.7695 118.558L58.6377 84.8516L39.1504 51.3359C38.3887 50.0241 38.0078 48.818 38.0078 47.7178C38.0078 46.3636 38.5368 45.1787 39.5947 44.1631C40.6527 43.1051 41.8799 42.5762 43.2764 42.5762C45.3499 42.5762 46.8734 43.4225 47.8467 45.1152L65.0488 74.0605L81.9336 45.2422C82.9915 43.5072 84.4938 42.6396 86.4404 42.6396C87.9215 42.6396 89.2122 43.1475 90.3125 44.1631C91.4128 45.1787 91.9629 46.4059 91.9629 47.8447C91.9629 48.818 91.6878 49.7702 91.1377 50.7012L71.1426 84.7246L91.0107 118.938C91.5186 119.785 91.7725 120.695 91.7725 121.668C91.7725 123.191 91.2435 124.461 90.1855 125.477C89.1699 126.492 87.9215 127 86.4404 127C84.3669 127 82.8223 126.132 81.8066 124.397L64.7949 95.3887ZM169.595 48.0986V67.7129L147.886 123.001C146.785 125.667 145.05 127 142.681 127C140.184 127 138.407 125.667 137.349 123.001L115.767 67.7129V48.0986C115.767 46.5752 116.274 45.2845 117.29 44.2266C118.348 43.1686 119.618 42.6396 121.099 42.6396C122.58 42.6396 123.828 43.1686 124.844 44.2266C125.902 45.2845 126.431 46.5752 126.431 48.0986V65.4912L142.681 106.878L158.931 65.6182V48.0986C158.931 46.5752 159.438 45.2845 160.454 44.2266C161.512 43.1686 162.782 42.6396 164.263 42.6396C165.744 42.6396 166.992 43.1686 168.008 44.2266C169.066 45.2845 169.595 46.5752 169.595 48.0986Z" fill="black"/>
<path d="M64.7949 95.3887L66.5201 94.3769L64.7917 91.4295L63.068 94.3798L64.7949 95.3887ZM47.8467 124.397L46.1198 123.389L46.1129 123.401L47.8467 124.397ZM39.4043 125.286L37.9626 126.672L37.9762 126.686L37.9901 126.7L39.4043 125.286ZM38.7695 118.558L40.4845 119.587L40.4885 119.58L40.4925 119.573L38.7695 118.558ZM58.6377 84.8516L60.3606 85.8672L60.9552 84.8585L60.3667 83.8463L58.6377 84.8516ZM39.1504 51.3359L37.4208 52.3402L37.4214 52.3412L39.1504 51.3359ZM39.5947 44.1631L40.9798 45.6059L40.9945 45.5917L41.0089 45.5773L39.5947 44.1631ZM47.8467 45.1152L46.1129 46.1122L46.12 46.1246L46.1274 46.137L47.8467 45.1152ZM65.0488 74.0605L63.3295 75.0823L65.0611 77.9959L66.7745 75.0716L65.0488 74.0605ZM81.9336 45.2422L80.226 44.201L80.2169 44.216L80.208 44.2311L81.9336 45.2422ZM91.1377 50.7012L89.4158 49.6837L89.4134 49.6878L91.1377 50.7012ZM71.1426 84.7246L69.4183 83.7113L68.8263 84.7186L69.413 85.729L71.1426 84.7246ZM91.0107 118.938L89.2812 119.943L89.2884 119.955L89.2958 119.967L91.0107 118.938ZM90.1855 125.477L88.8005 124.034L88.7858 124.048L88.7713 124.062L90.1855 125.477ZM81.8066 124.397L83.5327 123.387L83.5319 123.386L81.8066 124.397ZM63.068 94.3798L46.1198 123.389L49.5736 125.406L66.5218 96.3976L63.068 94.3798ZM46.1129 123.401C45.5137 124.442 44.6908 124.937 43.3398 124.937V128.937C46.0513 128.937 48.233 127.738 49.5805 125.394L46.1129 123.401ZM43.3398 124.937C42.3594 124.937 41.5527 124.606 40.8185 123.872L37.9901 126.7C39.4564 128.167 41.2734 128.937 43.3398 128.937V124.937ZM40.846 123.9C40.0833 123.107 39.8174 122.379 39.8174 121.668H35.8174C35.8174 123.581 36.6094 125.265 37.9626 126.672L40.846 123.9ZM39.8174 121.668C39.8174 121.086 39.9962 120.401 40.4845 119.587L37.0545 117.529C36.2734 118.831 35.8174 120.219 35.8174 121.668H39.8174ZM40.4925 119.573L60.3606 85.8672L56.9147 83.836L37.0466 117.542L40.4925 119.573ZM60.3667 83.8463L40.8794 50.3306L37.4214 52.3412L56.9087 85.8569L60.3667 83.8463ZM40.88 50.3317C40.2313 49.2144 40.0078 48.3564 40.0078 47.7178H36.0078C36.0078 49.2797 36.5461 50.8337 37.4208 52.3402L40.88 50.3317ZM40.0078 47.7178C40.0078 46.9564 40.2785 46.2791 40.9798 45.6059L38.2097 42.7203C36.7951 44.0783 36.0078 45.7708 36.0078 47.7178H40.0078ZM41.0089 45.5773C41.7214 44.8648 42.4508 44.5762 43.2764 44.5762V40.5762C41.309 40.5762 39.5839 41.3455 38.1805 42.7489L41.0089 45.5773ZM43.2764 44.5762C44.6885 44.5762 45.5227 45.0857 46.1129 46.1122L49.5805 44.1183C48.2241 41.7593 46.0114 40.5762 43.2764 40.5762V44.5762ZM46.1274 46.137L63.3295 75.0823L66.7681 73.0388L49.566 44.0935L46.1274 46.137ZM66.7745 75.0716L83.6592 46.2532L80.208 44.2311L63.3232 73.0495L66.7745 75.0716ZM83.6412 46.2834C84.3555 45.112 85.2278 44.6396 86.4404 44.6396V40.6396C83.7599 40.6396 81.6276 41.9023 80.226 44.201L83.6412 46.2834ZM86.4404 44.6396C87.4127 44.6396 88.2206 44.9539 88.9559 45.6327L91.6691 42.6935C90.2039 41.341 88.4304 40.6396 86.4404 40.6396V44.6396ZM88.9559 45.6327C89.6649 46.2871 89.9629 46.9893 89.9629 47.8447H93.9629C93.9629 45.8226 93.1606 44.0703 91.6691 42.6935L88.9559 45.6327ZM89.9629 47.8447C89.9629 48.4214 89.8046 49.0258 89.4158 49.6837L92.8595 51.7186C93.571 50.5146 93.9629 49.2147 93.9629 47.8447H89.9629ZM89.4134 49.6878L69.4183 83.7113L72.8669 85.7379L92.862 51.7145L89.4134 49.6878ZM69.413 85.729L89.2812 119.943L92.7403 117.934L72.8721 83.7203L69.413 85.729ZM89.2958 119.967C89.6198 120.508 89.7725 121.062 89.7725 121.668H93.7725C93.7725 120.327 93.4173 119.062 92.7257 117.909L89.2958 119.967ZM89.7725 121.668C89.7725 122.671 89.4488 123.411 88.8005 124.034L91.5706 126.919C93.0382 125.51 93.7725 123.712 93.7725 121.668H89.7725ZM88.7713 124.062C88.1437 124.69 87.4096 125 86.4404 125V129C88.4335 129 90.1962 128.294 91.5998 126.891L88.7713 124.062ZM86.4404 125C85.0497 125 84.1758 124.486 83.5327 123.387L80.0806 125.408C81.4687 127.779 83.6841 129 86.4404 129V125ZM83.5319 123.386L66.5201 94.3769L63.0697 96.4004L80.0814 125.409L83.5319 123.386ZM169.595 67.7129L171.456 68.4439L171.595 68.0915V67.7129H169.595ZM147.886 123.001L149.734 123.764L149.741 123.748L149.747 123.732L147.886 123.001ZM137.349 123.001L135.486 123.728L135.49 123.739L137.349 123.001ZM115.767 67.7129H113.767V68.0894L113.904 68.4402L115.767 67.7129ZM117.29 44.2266L115.876 42.8123L115.861 42.8268L115.847 42.8415L117.29 44.2266ZM124.844 44.2266L123.401 45.6116L123.415 45.6263L123.43 45.6408L124.844 44.2266ZM126.431 65.4912H124.431V65.8698L124.569 66.2222L126.431 65.4912ZM142.681 106.878L140.819 107.609L142.678 112.343L144.542 107.611L142.681 106.878ZM158.931 65.6182L160.792 66.3511L160.931 65.9978V65.6182H158.931ZM160.454 44.2266L159.04 42.8123L159.025 42.8268L159.011 42.8415L160.454 44.2266ZM168.008 44.2266L166.565 45.6116L166.579 45.6263L166.594 45.6408L168.008 44.2266ZM167.595 48.0986V67.7129H171.595V48.0986H167.595ZM167.733 66.9819L146.024 122.27L149.747 123.732L171.456 68.4439L167.733 66.9819ZM146.037 122.238C145.58 123.346 145.054 124.02 144.541 124.414C144.052 124.79 143.464 125 142.681 125V129C144.267 129 145.731 128.544 146.978 127.586C148.199 126.648 149.092 125.322 149.734 123.764L146.037 122.238ZM142.681 125C141.809 125 141.175 124.775 140.675 124.4C140.156 124.011 139.639 123.352 139.208 122.263L135.49 123.739C136.116 125.316 137.017 126.657 138.275 127.6C139.552 128.558 141.056 129 142.681 129V125ZM139.212 122.274L117.63 66.9856L113.904 68.4402L135.486 123.728L139.212 122.274ZM117.767 67.7129V48.0986H113.767V67.7129H117.767ZM117.767 48.0986C117.767 47.0693 118.09 46.2814 118.733 45.6116L115.847 42.8415C114.459 44.2876 113.767 46.0811 113.767 48.0986H117.767ZM118.704 45.6408C119.391 44.9536 120.154 44.6396 121.099 44.6396V40.6396C119.081 40.6396 117.305 41.3836 115.876 42.8123L118.704 45.6408ZM121.099 44.6396C122.041 44.6396 122.767 44.9509 123.401 45.6116L126.287 42.8415C124.89 41.3863 123.118 40.6396 121.099 40.6396V44.6396ZM123.43 45.6408C124.105 46.316 124.431 47.0948 124.431 48.0986H128.431C128.431 46.0556 127.699 44.253 126.258 42.8123L123.43 45.6408ZM124.431 48.0986V65.4912H128.431V48.0986H124.431ZM124.569 66.2222L140.819 107.609L144.542 106.147L128.292 64.7603L124.569 66.2222ZM144.542 107.611L160.792 66.3511L157.07 64.8853L140.82 106.145L144.542 107.611ZM160.931 65.6182V48.0986H156.931V65.6182H160.931ZM160.931 48.0986C160.931 47.0693 161.254 46.2814 161.897 45.6116L159.011 42.8415C157.623 44.2876 156.931 46.0811 156.931 48.0986H160.931ZM161.868 45.6408C162.555 44.9536 163.318 44.6396 164.263 44.6396V40.6396C162.245 40.6396 160.469 41.3836 159.04 42.8123L161.868 45.6408ZM164.263 44.6396C165.205 44.6396 165.931 44.9509 166.565 45.6116L169.451 42.8415C168.054 41.3863 166.282 40.6396 164.263 40.6396V44.6396ZM166.594 45.6408C167.269 46.316 167.595 47.0948 167.595 48.0986H171.595C171.595 46.0556 170.863 44.253 169.422 42.8123L166.594 45.6408Z" fill="black"/>
<g filter="url(#filter0_d)">
<path d="M58.0273 152.953V154.398C58.0273 156.208 57.3828 157.764 56.0938 159.066C54.8177 160.355 53.2747 161 51.4648 161H41.4258V135.043H51.4648C53.2747 135.043 54.8177 135.688 56.0938 136.977C57.3828 138.266 58.0273 139.822 58.0273 141.645V143.031C58.0273 144.971 57.2786 146.625 55.7812 147.992C57.2786 149.385 58.0273 151.039 58.0273 152.953ZM54.668 142.992V141.645C54.668 140.733 54.3424 139.952 53.6914 139.301C53.0534 138.65 52.2852 138.324 51.3867 138.324H44.707V146.273H51.3867C52.2721 146.273 53.0404 145.954 53.6914 145.316C54.3424 144.665 54.668 143.891 54.668 142.992ZM54.668 154.398V153.031C54.668 152.12 54.3424 151.339 53.6914 150.688C53.0534 150.036 52.2852 149.711 51.3867 149.711H44.7461V157.68H51.3867C52.2721 157.68 53.0404 157.361 53.6914 156.723C54.3424 156.072 54.668 155.297 54.668 154.398ZM78.207 148.07V155.004C78.207 156.475 77.5104 157.836 76.1172 159.086C74.737 160.336 73.3112 160.961 71.8398 160.961H67.9922C66.4948 160.961 65.0625 160.329 63.6953 159.066C62.3281 157.79 61.6445 156.436 61.6445 155.004V148.07C61.6445 146.638 62.3086 145.29 63.6367 144.027C64.9779 142.751 66.4297 142.113 67.9922 142.113H71.8398C73.3112 142.087 74.737 142.699 76.1172 143.949C77.5104 145.199 78.207 146.573 78.207 148.07ZM64.9648 148.207V154.848C64.9648 155.447 65.1797 155.922 65.6094 156.273L66.8398 157.328C67.1133 157.562 67.4974 157.68 67.9922 157.68H71.8008C72.3607 157.68 72.8685 157.478 73.3242 157.074L74.3203 156.195C74.724 155.883 74.9258 155.447 74.9258 154.887V148.246C74.9258 147.595 74.724 147.113 74.3203 146.801L73.168 145.883C72.7773 145.557 72.3216 145.395 71.8008 145.395H68.4023C67.6602 145.395 67.0872 145.57 66.6836 145.922L65.5703 146.879C65.1667 147.217 64.9648 147.66 64.9648 148.207ZM81.8633 159.359V143.793C81.8633 143.337 82.0195 142.947 82.332 142.621C82.6576 142.283 83.0482 142.113 83.5039 142.113C83.9596 142.113 84.3438 142.276 84.6562 142.602C84.9818 142.927 85.1445 143.324 85.1445 143.793V145.844L87.8203 143.559C88.9271 142.621 90.0078 142.152 91.0625 142.152H93.4648C94.819 142.152 95.9779 142.634 96.9414 143.598C97.9049 144.561 98.3867 145.72 98.3867 147.074V147.953C98.3867 148.422 98.224 148.819 97.8984 149.145C97.5859 149.47 97.2018 149.633 96.7461 149.633C96.2904 149.633 95.8997 149.477 95.5742 149.164C95.2617 148.839 95.1055 148.448 95.1055 147.992V147.074C95.1055 146.618 94.9427 146.234 94.6172 145.922C94.3047 145.596 93.9206 145.434 93.4648 145.434H91.3359C90.8802 145.434 90.3724 145.674 89.8125 146.156L85.1445 150.199V159.359C85.1445 159.815 84.9818 160.206 84.6562 160.531C84.3307 160.844 83.9466 161 83.5039 161C83.0482 161 82.6576 160.844 82.332 160.531C82.0195 160.206 81.8633 159.815 81.8633 159.359ZM102.043 159.359V136.723C102.043 136.254 102.199 135.857 102.512 135.531C102.837 135.206 103.228 135.043 103.684 135.043C104.139 135.043 104.523 135.206 104.836 135.531C105.161 135.857 105.324 136.254 105.324 136.723V150.121L114.152 142.602C114.53 142.289 114.94 142.133 115.383 142.133C115.852 142.133 116.242 142.302 116.555 142.641C116.867 142.966 117.023 143.357 117.023 143.812C117.023 144.294 116.854 144.678 116.516 144.965L109.641 150.805L118.117 158.246C118.456 158.52 118.625 158.878 118.625 159.32C118.625 159.75 118.469 160.141 118.156 160.492C117.844 160.831 117.46 161 117.004 161C116.548 161 116.145 160.85 115.793 160.551L107.043 152.953L105.324 154.398V159.359C105.324 159.815 105.161 160.206 104.836 160.531C104.523 160.844 104.139 161 103.684 161C103.228 161 102.837 160.844 102.512 160.531C102.199 160.206 102.043 159.815 102.043 159.359ZM127.105 149.164H133.531C133.883 149.164 134.391 149.242 135.055 149.398L135.016 147.074C135.016 146.618 134.853 146.234 134.527 145.922C134.215 145.596 133.831 145.434 133.375 145.434H127.145C126.702 145.434 126.318 145.271 125.992 144.945C125.667 144.62 125.504 144.236 125.504 143.793C125.504 143.337 125.66 142.953 125.973 142.641C126.298 142.315 126.689 142.152 127.145 142.152H133.375C134.729 142.152 135.882 142.628 136.832 143.578C137.796 144.529 138.297 145.694 138.336 147.074L138.746 159.359C138.746 159.815 138.583 160.206 138.258 160.531C137.932 160.844 137.548 161 137.105 161C136.637 161 136.24 160.844 135.914 160.531C135.589 160.206 135.426 159.815 135.426 159.359L132.652 161H127.105C125.725 161 124.553 160.518 123.59 159.555C122.626 158.591 122.145 157.419 122.145 156.039V154.125C122.145 152.758 122.626 151.592 123.59 150.629C124.566 149.652 125.738 149.164 127.105 149.164ZM135.309 155.551L135.211 154.164C135.198 153.695 135.035 153.305 134.723 152.992C134.41 152.68 134.026 152.523 133.57 152.523H127.105C126.65 152.523 126.259 152.686 125.934 153.012C125.621 153.324 125.465 153.708 125.465 154.164V156C125.465 156.443 125.628 156.827 125.953 157.152C126.279 157.478 126.663 157.641 127.105 157.641H131.734L135.309 155.551ZM158.926 136.723V161H154.512L145.684 140.844V159.359C145.684 159.815 145.521 160.206 145.195 160.531C144.883 160.844 144.499 161 144.043 161C143.587 161 143.197 160.844 142.871 160.531C142.559 160.206 142.402 159.815 142.402 159.359V135.043H146.758L155.605 155.16V136.723C155.605 136.267 155.768 135.876 156.094 135.551C156.432 135.212 156.829 135.043 157.285 135.043C157.741 135.043 158.125 135.206 158.438 135.531C158.763 135.857 158.926 136.254 158.926 136.723Z" fill="black"/>
</g>
<defs>
<filter id="filter0_d" x="37.4258" y="135.043" width="125.5" height="33.957" filterUnits="userSpaceOnUse" color-interpolation-filters="sRGB">
<feFlood flood-opacity="0" result="BackgroundImageFix"/>
<feColorMatrix in="SourceAlpha" type="matrix" values="0 0 0 0 0 0 0 0 0 0 0 0 0 0 0 0 0 0 127 0"/>
<feOffset dy="4"/>
<feGaussianBlur stdDeviation="2"/>
<feColorMatrix type="matrix" values="0 0 0 0 0 0 0 0 0 0 0 0 0 0 0 0 0 0 0.25 0"/>
<feBlend mode="normal" in2="BackgroundImageFix" result="effect1_dropShadow"/>
<feBlend mode="normal" in="SourceGraphic" in2="effect1_dropShadow" result="shape"/>
</filter>
</defs>
</svg>
